<svg xmlns="http://www.w3.org/2000/svg" width="900" height="650" viewBox="0 0 900 650" role="img" aria-label="Duplex Printer product image">
  <defs>
    <linearGradient id="bg" x1="0" y1="0" x2="1" y2="1">
      <stop offset="0%" stop-color="#f8fafc"/>
      <stop offset="100%" stop-color="#fef3c7"/>
    </linearGradient>
    <linearGradient id="device" x1="0" y1="0" x2="1" y2="1">
      <stop offset="0%" stop-color="#475569"/>
      <stop offset="100%" stop-color="#f59e0b"/>
    </linearGradient>
    <filter id="shadow" x="-20%" y="-20%" width="140%" height="150%">
      <feDropShadow dx="0" dy="22" stdDeviation="24" flood-color="#0f172a" flood-opacity="0.22"/>
    </filter>
  </defs>
  <rect width="900" height="650" rx="44" fill="url(#bg)"/>
  <circle cx="745" cy="95" r="110" fill="#ffffff" opacity="0.16"/>
  <circle cx="90" cy="570" r="150" fill="#ffffff" opacity="0.12"/>
  <rect x="58" y="54" width="172" height="42" rx="21" fill="#ffffff" opacity="0.94"/>
  <text x="86" y="82" font-family="Inter, Arial, sans-serif" font-size="18" font-weight="800" fill="#1e293b">Printer</text>
  <g transform="translate(542 58)">
    <rect width="270" height="74" rx="24" fill="#ffffff" opacity="0.92"/>
    <circle cx="42" cy="37" r="22" fill="#475569"/>
    <text x="42" y="44" text-anchor="middle" font-family="Inter, Arial, sans-serif" font-size="16" font-weight="900" fill="#ffffff">B</text>
    <text x="78" y="34" font-family="Inter, Arial, sans-serif" font-size="18" font-weight="900" fill="#0f172a">Brother</text>
    <text x="78" y="57" font-family="Inter, Arial, sans-serif" font-size="15" font-weight="700" fill="#64748b">HL-L2321D</text>
  </g>
  <g filter="url(#shadow)">
    <g transform="translate(212 160)"><rect x="40" y="82" width="430" height="230" rx="34" fill="url(#device)"/><rect x="96" y="0" width="318" height="128" rx="18" fill="#fff" opacity=".92"/><rect x="94" y="204" width="322" height="112" rx="18" fill="#fff" opacity=".92"/><rect x="122" y="226" width="266" height="16" rx="8" fill="#94a3b8"/><rect x="122" y="258" width="220" height="16" rx="8" fill="#94a3b8"/></g>
  </g>
  <g transform="translate(64 468)">
    <rect width="772" height="120" rx="30" fill="#ffffff" opacity="0.95"/>
    <text x="32" y="48" font-family="Inter, Arial, sans-serif" font-size="32" font-weight="900" fill="#0f172a">Duplex Printer</text>
    <text x="32" y="84" font-family="Inter, Arial, sans-serif" font-size="20" font-weight="700" fill="#64748b">Brother HL-L2321D | USB</text>
  </g>
</svg>