<svg xmlns="http://www.w3.org/2000/svg" width="900" height="650" viewBox="0 0 900 650" role="img" aria-label="Mechanical Keyboard product image">
  <defs>
    <linearGradient id="bg" x1="0" y1="0" x2="1" y2="1">
      <stop offset="0%" stop-color="#eef2ff"/>
      <stop offset="100%" stop-color="#cffafe"/>
    </linearGradient>
    <linearGradient id="device" x1="0" y1="0" x2="1" y2="1">
      <stop offset="0%" stop-color="#4f46e5"/>
      <stop offset="100%" stop-color="#06b6d4"/>
    </linearGradient>
    <filter id="shadow" x="-20%" y="-20%" width="140%" height="150%">
      <feDropShadow dx="0" dy="22" stdDeviation="24" flood-color="#0f172a" flood-opacity="0.22"/>
    </filter>
  </defs>
  <rect width="900" height="650" rx="44" fill="url(#bg)"/>
  <circle cx="745" cy="95" r="110" fill="#ffffff" opacity="0.16"/>
  <circle cx="90" cy="570" r="150" fill="#ffffff" opacity="0.12"/>
  <rect x="58" y="54" width="172" height="42" rx="21" fill="#ffffff" opacity="0.94"/>
  <text x="86" y="82" font-family="Inter, Arial, sans-serif" font-size="18" font-weight="800" fill="#1e293b">Keyboard</text>
  <g transform="translate(542 58)">
    <rect width="270" height="74" rx="24" fill="#ffffff" opacity="0.92"/>
    <circle cx="42" cy="37" r="22" fill="#4f46e5"/>
    <text x="42" y="44" text-anchor="middle" font-family="Inter, Arial, sans-serif" font-size="16" font-weight="900" fill="#ffffff">K</text>
    <text x="78" y="34" font-family="Inter, Arial, sans-serif" font-size="18" font-weight="900" fill="#0f172a">Keychron</text>
    <text x="78" y="57" font-family="Inter, Arial, sans-serif" font-size="15" font-weight="700" fill="#64748b">K2 V2</text>
  </g>
  <g filter="url(#shadow)">
    <g transform="translate(180 214)"><rect x="0" y="0" width="540" height="180" rx="34" fill="url(#device)"/><g fill="#ffffff" opacity="0.88"><rect x="38" y="42" width="54" height="34" rx="8"/><rect x="108" y="42" width="54" height="34" rx="8"/><rect x="178" y="42" width="54" height="34" rx="8"/><rect x="248" y="42" width="54" height="34" rx="8"/><rect x="318" y="42" width="54" height="34" rx="8"/><rect x="388" y="42" width="54" height="34" rx="8"/><rect x="458" y="42" width="44" height="34" rx="8"/><rect x="38" y="94" width="64" height="34" rx="8"/><rect x="118" y="94" width="64" height="34" rx="8"/><rect x="198" y="94" width="180" height="34" rx="8"/><rect x="394" y="94" width="48" height="34" rx="8"/><rect x="458" y="94" width="44" height="34" rx="8"/></g></g>
  </g>
  <g transform="translate(64 468)">
    <rect width="772" height="120" rx="30" fill="#ffffff" opacity="0.95"/>
    <text x="32" y="48" font-family="Inter, Arial, sans-serif" font-size="32" font-weight="900" fill="#0f172a">Mechanical Keyboard</text>
    <text x="32" y="84" font-family="Inter, Arial, sans-serif" font-size="20" font-weight="700" fill="#64748b">Keychron K2 V2 | Bluetooth / USB-C</text>
  </g>
</svg>