<svg xmlns="http://www.w3.org/2000/svg" width="900" height="650" viewBox="0 0 900 650" role="img" aria-label="Portable Mini Projector product image">
  <defs>
    <linearGradient id="bg" x1="0" y1="0" x2="1" y2="1">
      <stop offset="0%" stop-color="#eef2ff"/>
      <stop offset="100%" stop-color="#dcfce7"/>
    </linearGradient>
    <linearGradient id="device" x1="0" y1="0" x2="1" y2="1">
      <stop offset="0%" stop-color="#4338ca"/>
      <stop offset="100%" stop-color="#22c55e"/>
    </linearGradient>
    <filter id="shadow" x="-20%" y="-20%" width="140%" height="150%">
      <feDropShadow dx="0" dy="22" stdDeviation="24" flood-color="#0f172a" flood-opacity="0.22"/>
    </filter>
  </defs>
  <rect width="900" height="650" rx="44" fill="url(#bg)"/>
  <circle cx="745" cy="95" r="110" fill="#ffffff" opacity="0.16"/>
  <circle cx="90" cy="570" r="150" fill="#ffffff" opacity="0.12"/>
  <rect x="58" y="54" width="172" height="42" rx="21" fill="#ffffff" opacity="0.94"/>
  <text x="86" y="82" font-family="Inter, Arial, sans-serif" font-size="18" font-weight="800" fill="#1e293b">Projector</text>
  <g transform="translate(542 58)">
    <rect width="270" height="74" rx="24" fill="#ffffff" opacity="0.92"/>
    <circle cx="42" cy="37" r="22" fill="#4338ca"/>
    <text x="42" y="44" text-anchor="middle" font-family="Inter, Arial, sans-serif" font-size="16" font-weight="900" fill="#ffffff">A</text>
    <text x="78" y="34" font-family="Inter, Arial, sans-serif" font-size="18" font-weight="900" fill="#0f172a">Anker</text>
    <text x="78" y="57" font-family="Inter, Arial, sans-serif" font-size="15" font-weight="700" fill="#64748b">Nebula Capsule</text>
  </g>
  <g filter="url(#shadow)">
    <g transform="translate(190 202)"><rect x="0" y="0" width="430" height="190" rx="38" fill="url(#device)"/><circle cx="318" cy="95" r="62" fill="#fff" opacity=".9"/><circle cx="318" cy="95" r="36" fill="#0f172a" opacity=".32"/><rect x="52" y="52" width="150" height="28" rx="14" fill="#fff" opacity=".32"/><rect x="52" y="104" width="104" height="24" rx="12" fill="#fff" opacity=".24"/><path d="M464 78l190-64v162L464 112Z" fill="#fff" opacity=".42"/></g>
  </g>
  <g transform="translate(64 468)">
    <rect width="772" height="120" rx="30" fill="#ffffff" opacity="0.95"/>
    <text x="32" y="48" font-family="Inter, Arial, sans-serif" font-size="32" font-weight="900" fill="#0f172a">Portable Mini Projector</text>
    <text x="32" y="84" font-family="Inter, Arial, sans-serif" font-size="20" font-weight="700" fill="#64748b">Anker Nebula Capsule | HDMI / Wi-Fi</text>
  </g>
</svg>